# xmcd
# Track frame offsets:
# 150
# 12299
# 26403
# 40238
# 52090
# 64155
# 78578
# 93178
# 105984
# 121446
# 136660
# 149288
# 162107
# 177352
#
# Disc length: 2547 seconds
# Revision: 0
# Processed by: cddbd v1.4PL0 Copyright (c) Steve Scherf et al.
# Submitted via: VisiTrax 2.9.5.181 - For more info visit www.synapsa.com
#
DISCID=b109f10e
DTITLE=Various Artist - Blues Hits [CD2]
DYEAR=1997
DGENRE=Vocal
TTITLE0=Bessie Smith - Saint Louis Blues
TTITLE1=Ma Rainey - See See Rider Blues
TTITLE2=Blind Lemon Jefferson - Matchbox Blues
TTITLE3=Jimmie Rodgers - Blue Yodel No. 1
TTITLE4=Ethel Waters - West End Blues
TTITLE5=Blind Blake - Too Tight Blues no. 2
TTITLE6=Memphis Jug Band - K.C. Moan
TTITLE7=Mississippi Sheiks - Sitting On the Top of the World
TTITLE8=Leroy Carr - New How Long How long Blues
TTITLE9=Josh White - Blood River Blues
TTITLE10=Charley Patton - High Sheriff Blues
TTITLE11=Tampa Red - Mean Mistreater Blues
TTITLE12=Memphis Minnie - If You See My Rooster
TTITLE13=Robert Johnson - I Believe I'll Dust My Broom
EXTD=
EXTT0=
EXTT1=
EXTT2=
EXTT3=
EXTT4=
EXTT5=
EXTT6=
EXTT7=
EXTT8=
EXTT9=
EXTT10=
EXTT11=
EXTT12=
EXTT13=
PLAYORDER=
